<?xml version="1.0" encoding="UTF-8" standalone="no"?> <svg id="Layer_1" data-name="Layer 1" xmlns="http://www.w3.org/2000/svg" viewBox="0 0 48 48"><title>Strength</title><rect x="30" y="10" width="7" height="28" rx="2"/><path d="M41.5,15H39V33h2.5A1.5,1.5,0,0,0,43,31.5v-15A1.5,1.5,0,0,0,41.5,15Z"/><rect x="11" y="10" width="7" height="28" rx="2"/><path d="M6.5,15H9V33H6.5A1.5,1.5,0,0,1,5,31.5v-15A1.5,1.5,0,0,1,6.5,15Z"/><path d="M3,20a3,3,0,0,0-3,3v2a3,3,0,0,0,3,3Z"/><path d="M45,20v8a3,3,0,0,0,3-3V23A3,3,0,0,0,45,20Z"/><rect x="20" y="20" width="8" height="8"/></svg>